<mxfile host="app.diagrams.net" modified="2024-04-21T01:10:44.672Z" agent="Mozilla/5.0 (Windows NT 10.0; Win64; x64) AppleWebKit/537.36 (KHTML, like Gecko) Chrome/123.0.0.0 Safari/537.36" version="24.2.7" etag="nAnJkEm3DK9wyEFQyfM-" type="github">
  <diagram name="PÃ¡gina-1" id="lAsoAkySi3i3eg3M1cc4">
    <mxGraphModel>
      <root>
        <mxCell id="0" />
        <mxCell id="1" parent="0" />
      </root>
    </mxGraphModel>
  </diagram>
</mxfile>
